<svg width="350" height="48" viewBox="0 0 350 48" fill="none" xmlns="http://www.w3.org/2000/svg">
<rect x="0.5" y="0.5" width="349" height="47" rx="4.5" fill="black"/>
<path d="M138.839 24.24C139.49 24.3787 140.012 24.704 140.407 25.216C140.802 25.7173 140.999 26.2933 140.999 26.944C140.999 27.8827 140.668 28.6293 140.007 29.184C139.356 29.728 138.444 30 137.271 30H132.039V18.768H137.095C138.236 18.768 139.127 19.0293 139.767 19.552C140.418 20.0747 140.743 20.784 140.743 21.68C140.743 22.3413 140.567 22.8907 140.215 23.328C139.874 23.7653 139.415 24.0693 138.839 24.24ZM134.775 23.312H136.567C137.015 23.312 137.356 23.216 137.591 23.024C137.836 22.8213 137.959 22.528 137.959 22.144C137.959 21.76 137.836 21.4667 137.591 21.264C137.356 21.0613 137.015 20.96 136.567 20.96H134.775V23.312ZM136.791 27.792C137.25 27.792 137.602 27.6907 137.847 27.488C138.103 27.2747 138.231 26.9707 138.231 26.576C138.231 26.1813 138.098 25.872 137.831 25.648C137.575 25.424 137.218 25.312 136.759 25.312H134.775V27.792H136.791ZM151.402 21.072V30H148.666V28.784C148.388 29.1787 148.01 29.4987 147.53 29.744C147.06 29.9787 146.538 30.096 145.962 30.096C145.279 30.096 144.676 29.9467 144.154 29.648C143.631 29.3387 143.226 28.896 142.938 28.32C142.65 27.744 142.506 27.0667 142.506 26.288V21.072H145.226V25.92C145.226 26.5173 145.38 26.9813 145.69 27.312C145.999 27.6427 146.415 27.808 146.938 27.808C147.471 27.808 147.892 27.6427 148.202 27.312C148.511 26.9813 148.666 26.5173 148.666 25.92V21.072H151.402ZM158.343 27.68V30H156.951C155.959 30 155.186 29.76 154.631 29.28C154.076 28.7893 153.799 27.9947 153.799 26.896V23.344H152.711V21.072H153.799V18.896H156.535V21.072H158.327V23.344H156.535V26.928C156.535 27.1947 156.599 27.3867 156.727 27.504C156.855 27.6213 157.068 27.68 157.367 27.68H158.343ZM164.843 27.68V30H163.451C162.459 30 161.686 29.76 161.131 29.28C160.576 28.7893 160.299 27.9947 160.299 26.896V23.344H159.211V21.072H160.299V18.896H163.035V21.072H164.827V23.344H163.035V26.928C163.035 27.1947 163.099 27.3867 163.227 27.504C163.355 27.6213 163.568 27.68 163.867 27.68H164.843ZM170.431 30.128C169.556 30.128 168.767 29.9413 168.063 29.568C167.37 29.1947 166.82 28.6613 166.415 27.968C166.02 27.2747 165.823 26.464 165.823 25.536C165.823 24.6187 166.026 23.8133 166.431 23.12C166.836 22.416 167.391 21.8773 168.095 21.504C168.799 21.1307 169.588 20.944 170.463 20.944C171.338 20.944 172.127 21.1307 172.831 21.504C173.535 21.8773 174.09 22.416 174.495 23.12C174.9 23.8133 175.103 24.6187 175.103 25.536C175.103 26.4533 174.895 27.264 174.479 27.968C174.074 28.6613 173.514 29.1947 172.799 29.568C172.095 29.9413 171.306 30.128 170.431 30.128ZM170.431 27.76C170.954 27.76 171.396 27.568 171.759 27.184C172.132 26.8 172.319 26.2507 172.319 25.536C172.319 24.8213 172.138 24.272 171.775 23.888C171.423 23.504 170.986 23.312 170.463 23.312C169.93 23.312 169.487 23.504 169.135 23.888C168.783 24.2613 168.607 24.8107 168.607 25.536C168.607 26.2507 168.778 26.8 169.119 27.184C169.471 27.568 169.908 27.76 170.431 27.76ZM181.995 20.976C183.04 20.976 183.872 21.3173 184.491 22C185.12 22.672 185.435 23.6 185.435 24.784V30H182.715V25.152C182.715 24.5547 182.56 24.0907 182.251 23.76C181.941 23.4293 181.525 23.264 181.003 23.264C180.48 23.264 180.064 23.4293 179.755 23.76C179.445 24.0907 179.291 24.5547 179.291 25.152V30H176.555V21.072H179.291V22.256C179.568 21.8613 179.941 21.552 180.411 21.328C180.88 21.0933 181.408 20.976 181.995 20.976ZM198.806 18.768V20.96H195.83V30H193.094V20.96H190.118V18.768H198.806ZM208.595 25.392C208.595 25.648 208.58 25.9147 208.548 26.192H202.356C202.398 26.7467 202.574 27.1733 202.884 27.472C203.204 27.76 203.593 27.904 204.052 27.904C204.734 27.904 205.209 27.616 205.476 27.04H208.388C208.238 27.6267 207.966 28.1547 207.572 28.624C207.188 29.0933 206.702 29.4613 206.116 29.728C205.529 29.9947 204.873 30.128 204.148 30.128C203.273 30.128 202.494 29.9413 201.812 29.568C201.129 29.1947 200.596 28.6613 200.212 27.968C199.828 27.2747 199.636 26.464 199.636 25.536C199.636 24.608 199.822 23.7973 200.196 23.104C200.58 22.4107 201.113 21.8773 201.796 21.504C202.478 21.1307 203.262 20.944 204.148 20.944C205.012 20.944 205.78 21.1253 206.452 21.488C207.124 21.8507 207.646 22.368 208.02 23.04C208.404 23.712 208.595 24.496 208.595 25.392ZM205.796 24.672C205.796 24.2027 205.636 23.8293 205.316 23.552C204.996 23.2747 204.596 23.136 204.116 23.136C203.657 23.136 203.268 23.2693 202.948 23.536C202.638 23.8027 202.446 24.1813 202.372 24.672H205.796ZM215.319 30L213.607 27.52L212.167 30H209.207L212.151 25.44L209.127 21.072H212.199L213.911 23.536L215.351 21.072H218.311L215.319 25.568L218.391 30H215.319ZM224.421 27.68V30H223.029C222.037 30 221.264 29.76 220.709 29.28C220.154 28.7893 219.877 27.9947 219.877 26.896V23.344H218.789V21.072H219.877V18.896H222.613V21.072H224.405V23.344H222.613V26.928C222.613 27.1947 222.677 27.3867 222.805 27.504C222.933 27.6213 223.146 27.68 223.445 27.68H224.421Z" fill="white"/>
<rect x="0.5" y="0.5" width="349" height="47" rx="4.5" stroke="black"/>
</svg>
